<svg width="20" height="20" viewBox="0 0 20 20" fill="none" xmlns="http://www.w3.org/2000/svg">
    <path d="M3.54163 3.95825H3.12496C2.90395 3.95825 2.69198 4.04605 2.5357 4.20233C2.37942 4.35861 2.29163 4.57057 2.29163 4.79159V16.4583C2.29163 16.6793 2.37942 16.8912 2.5357 17.0475C2.69198 17.2038 2.90395 17.2916 3.12496 17.2916H16.875C17.096 17.2916 17.3079 17.2038 17.4642 17.0475C17.6205 16.8912 17.7083 16.6793 17.7083 16.4583V4.79159C17.7083 4.57057 17.6205 4.35861 17.4642 4.20233C17.3079 4.04605 17.096 3.95825 16.875 3.95825H16.4583M13.9583 3.95825H6.04163M15.2083 5.20825V2.70825M4.79163 5.20825V2.70825" stroke="#888888" stroke-linecap="round" stroke-linejoin="round"/>
    <path d="M8.3708 13.0368C8.8086 13.3324 9.31857 13.5032 9.84607 13.5311C10.3736 13.5589 10.8987 13.4427 11.3652 13.1949C11.8317 12.9471 12.2219 12.577 12.4941 12.1243C12.7663 11.6716 12.9102 11.1533 12.9104 10.6251M11.6275 8.21178C11.1896 7.91669 10.6797 7.74628 10.1523 7.71879C9.62501 7.6913 9.10014 7.80777 8.63394 8.05573C8.16773 8.30369 7.77776 8.67379 7.50578 9.1264C7.23381 9.579 7.09007 10.0971 7.08997 10.6251" stroke="#888888" stroke-linecap="round" stroke-linejoin="round"/>
    <path d="M12.4608 10.6251H11.3671L12.8713 9.12134L14.375 10.6251H12.4608ZM7.53917 10.6255H8.63292L7.12875 12.1293L5.625 10.6255H7.53917V10.6255Z" stroke="#888888" stroke-linecap="round" stroke-linejoin="round"/>
</svg>