<svg width="20" height="20" viewBox="0 0 20 20" fill="none" xmlns="http://www.w3.org/2000/svg">
    <path d="M13.85 5.17509C13.7638 5.10679 13.6648 5.05625 13.5589 5.02639C13.453 4.99653 13.3423 4.98794 13.233 5.00111C13.1238 5.01428 13.0182 5.04895 12.9225 5.10313C12.8267 5.15731 12.7426 5.22991 12.675 5.31676L6.8417 12.8168L3.98337 9.33342C3.91632 9.24418 3.83203 9.16931 3.7355 9.11326C3.63896 9.05722 3.53215 9.02114 3.4214 9.00717C3.31065 8.9932 3.19823 9.00162 3.0908 9.03193C2.98337 9.06225 2.88312 9.11383 2.79601 9.18363C2.7089 9.25343 2.6367 9.34002 2.5837 9.43826C2.5307 9.5365 2.49797 9.64439 2.48746 9.75552C2.47696 9.86665 2.48889 9.97875 2.52254 10.0852C2.55619 10.1916 2.61088 10.2902 2.68337 10.3751L6.15837 14.6918C6.2368 14.7884 6.3359 14.8663 6.44838 14.9197C6.56086 14.973 6.68387 15.0005 6.80837 15.0001C6.94052 15.006 7.07217 14.9803 7.19244 14.9253C7.31272 14.8702 7.41815 14.7873 7.50004 14.6834L14.025 6.35009C14.0916 6.26178 14.1398 6.16111 14.1671 6.05395C14.1943 5.9468 14.1999 5.83529 14.1837 5.72593C14.1674 5.61658 14.1295 5.51155 14.0722 5.41698C14.0149 5.32241 13.9394 5.24018 13.85 5.17509V5.17509ZM18.0167 5.17509C17.9304 5.10679 17.8315 5.05625 17.7256 5.02639C17.6197 4.99653 17.5089 4.98794 17.3997 5.00111C17.2904 5.01428 17.1849 5.04895 17.0891 5.10313C16.9934 5.15731 16.9093 5.22991 16.8417 5.31676L11.0084 12.8168L10.5 12.1918L9.45004 13.5418L10.3667 14.6834C10.4451 14.7801 10.5442 14.858 10.6567 14.9113C10.7692 14.9647 10.8922 14.9922 11.0167 14.9918C11.1419 14.9912 11.2653 14.9624 11.3778 14.9076C11.4904 14.8528 11.5891 14.7733 11.6667 14.6751L18.1917 6.34176C18.2569 6.2537 18.3041 6.15365 18.3306 6.04733C18.3572 5.941 18.3624 5.83049 18.3462 5.72213C18.3299 5.61376 18.2925 5.50966 18.2359 5.4158C18.1794 5.32193 18.1049 5.24013 18.0167 5.17509V5.17509Z" fill="#888888"/>
    <path d="M7.25835 10.8834L8.33335 9.5334L8.16668 9.3334C8.10089 9.24225 8.01734 9.16536 7.92105 9.10734C7.82476 9.04933 7.71773 9.0114 7.60641 8.99583C7.49508 8.98026 7.38175 8.98737 7.27324 9.01674C7.16473 9.04611 7.06329 9.09714 6.97501 9.16674C6.88941 9.23551 6.81824 9.32052 6.76559 9.41688C6.71295 9.51324 6.67987 9.61906 6.66825 9.72825C6.65663 9.83744 6.66671 9.94785 6.69791 10.0531C6.7291 10.1584 6.78079 10.2565 6.85001 10.3417L7.25835 10.8834Z" fill="#888888"/>
</svg>