<svg width="20" height="20" viewBox="0 0 20 20" fill="none" xmlns="http://www.w3.org/2000/svg">
    <path d="M16.8 3.19989C16.5779 2.97769 16.3141 2.80143 16.0238 2.68117C15.7335 2.56092 15.4224 2.49902 15.1081 2.49902C14.7939 2.49902 14.4828 2.56092 14.1925 2.68117C13.9022 2.80143 13.6384 2.97769 13.4163 3.19989L4.17252 12.4436C3.94654 12.6698 3.77622 12.9454 3.67502 13.2486L2.53252 16.6774C2.49602 16.7874 2.49084 16.9054 2.51756 17.0182C2.54427 17.131 2.60182 17.2342 2.68379 17.3161C2.76576 17.3981 2.8689 17.4556 2.9817 17.4824C3.0945 17.5091 3.2125 17.5039 3.32252 17.4674L6.75127 16.3249C7.05502 16.2249 7.33002 16.0536 7.55627 15.8274L16.8 6.58489C17.0224 6.3627 17.1988 6.09886 17.3192 5.80845C17.4396 5.51804 17.5015 5.20676 17.5015 4.89239C17.5015 4.57803 17.4396 4.26674 17.3192 3.97633C17.1988 3.68593 17.0224 3.42208 16.8 3.19989V3.19989ZM14.3 4.08489C14.4056 3.97669 14.5316 3.89052 14.6707 3.83137C14.8099 3.77222 14.9593 3.74128 15.1105 3.74032C15.2617 3.73936 15.4115 3.76842 15.5514 3.8258C15.6913 3.88319 15.8184 3.96776 15.9253 4.07462C16.0322 4.18147 16.1169 4.30849 16.1744 4.44831C16.2319 4.58813 16.2611 4.73796 16.2602 4.88914C16.2594 5.04031 16.2285 5.18982 16.1695 5.32899C16.1105 5.46816 16.0244 5.59423 15.9163 5.69989L15 6.61739L13.3838 5.00114L14.3013 4.08489H14.3ZM12.5 5.88489L14.115 7.50114L6.67252 14.9436C6.58364 15.0323 6.47537 15.099 6.35627 15.1386L4.11377 15.8861L4.86127 13.6449C4.90076 13.5254 4.96752 13.4167 5.05627 13.3274L12.5 5.88489Z" fill="#888888"/>
</svg>