<svg width="32" height="32" viewBox="0 0 32 32" fill="none" xmlns="http://www.w3.org/2000/svg">
    <path d="M14.388 4.20198C14.5367 3.90086 14.7667 3.64734 15.0519 3.47007C15.3371 3.2928 15.6662 3.19885 16.002 3.19885C16.3379 3.19885 16.667 3.2928 16.9522 3.47007C17.2374 3.64734 17.4674 3.90086 17.616 4.20198L20.658 10.366L27.46 11.356C27.7926 11.4039 28.105 11.544 28.3621 11.7603C28.6191 11.9767 28.8105 12.2606 28.9146 12.5801C29.0186 12.8995 29.0312 13.2417 28.9509 13.5679C28.8705 13.8941 28.7005 14.1914 28.46 14.426L23.536 19.224L24.698 25.998C24.755 26.3291 24.7181 26.6695 24.5916 26.9808C24.4651 27.292 24.254 27.5616 23.9822 27.7591C23.7104 27.9566 23.3887 28.0741 23.0536 28.0983C22.7186 28.1225 22.3834 28.0524 22.086 27.896L16.002 24.696L9.91804 27.896C9.6207 28.0524 9.28552 28.1225 8.95043 28.0983C8.61533 28.0741 8.29369 27.9566 8.0219 27.7591C7.75011 27.5616 7.53902 27.292 7.41251 26.9808C7.28599 26.6695 7.24911 26.3291 7.30604 25.998L8.46604 19.224L3.54604 14.424C3.30618 14.1894 3.13664 13.8925 3.05656 13.5667C2.97647 13.2409 2.98903 12.8993 3.0928 12.5802C3.19658 12.2612 3.38745 11.9775 3.64388 11.7612C3.90031 11.5449 4.21209 11.4045 4.54404 11.356L11.344 10.366L14.388 4.20198Z" fill="#FFD952"/>
</svg>